PathFileType	4	(X/Y/Z)	Patient4_TMGait_0pt5_01_right_13.trc.trc
DataRate	CameraRate	NumFrames	NumMarkers	Units	OrigDataRate	OrigDataStartFrame	OrigNumFrames
77.777777777778	77.777777777778	7	33	mm	77.777777777778	18	       141
Frame#	Time	L.ASIS			Sacral			L.Shoulder			Chest			R.Shoulder			Neck			R.ASIS			R.Thigh.Superior			R.Thigh.Lateral			R.Thigh.Inferior			R.Patella			L.Thigh.Superior			L.Thigh.Lateral			L.Thigh.Inferior			L.Patella			L.Shank.Superior			L.Shank.Lateral			L.Shank.Inferior			R.Shank.Superior			R.Shank.Lateral			R.Shank.Inferior			R.Heel			R.Midfoot.Superior			R.Midfoot.Lateral			R.Toe			L.Heel			L.Midfoot.Lateral			L.Midfoot.Superior			L.Toe			L.Elbow			L.Wrist			R.Elbow			R.Wrist			
		X1	Y1	Z1	X2	Y2	Z2	X3	Y3	Z3	X4	Y4	Z4	X5	Y5	Z5	X6	Y6	Z6	X7	Y7	Z7	X8	Y8	Z8	X9	Y9	Z9	X10	Y10	Z10	X11	Y11	Z11	X12	Y12	Z12	X13	Y13	Z13	X14	Y14	Z14	X15	Y15	Z15	X16	Y16	Z16	X17	Y17	Z17	X18	Y18	Z18	X19	Y19	Z19	X20	Y20	Z20	X21	Y21	Z21	X22	Y22	Z22	X23	Y23	Z23	X24	Y24	Z24	X25	Y25	Z25	X26	Y26	Z26	X27	Y27	Z27	X28	Y28	Z28	X29	Y29	Z29	X30	Y30	Z30	X31	Y31	Z31	X32	Y32	Z32	X33	Y33	Z33	

18	16.988571428571	804.505344713983	957.785747126127	288.174116947478	578.241729106412	1003.480204740480	422.702292885844	760.583054064605	1431.923444795127	247.432410786702	844.349159930764	1369.045890320254	421.102911791390	738.737676969780	1443.854657041754	582.521575751093	740.978973332940	1497.038070520965	395.438764216512	792.571299087411	948.992644621987	563.591961440167	863.701279157276	767.472925973131	543.684724072815	807.836504738968	648.438010409153	613.780042416407	897.891848628309	605.896658959063	539.096263192471	926.290850424070	526.041177481660	554.789099453344	808.528286032908	730.869069889850	321.736741901806	696.904772595934	634.400110874677	256.908977348656	754.338615775430	543.808484568417	326.304328027690	739.252660789839	476.969728581953	337.428529967738	708.001611987194	410.585739301638	329.980478269751	610.562299980995	303.716062782947	279.427007695052	647.334960244284	190.757907704534	355.533127071939	914.521267786344	438.544815342227	564.776153209816	865.393039919620	323.820582952606	627.444501357506	938.495598320547	240.162630261365	577.956743661467	850.089895292982	54.707335447162	548.230898873934	1013.187789121608	126.296087536512	593.423544316706	931.998813559873	52.043774236012	624.520034542417	1135.565818219515	86.163501221218	622.927465850226	506.115334819590	40.542220493897	400.025746518421	580.324740849010	35.727782644253	320.230352792617	664.747599320591	95.485615294063	345.999219367627	792.043305189051	40.152868412133	318.859795663037	826.212339555694	1096.486780864729	104.754320467277	1072.912572598131	1015.286362709123	107.437422083377	589.611053454450	1137.124283423528	692.379084100202	556.281628835040	881.271065802762	726.549750276869	
19	17.001428571429	805.093543763782	956.860629709489	289.877867933751	578.799057877568	1001.885099141007	424.789549901628	759.476730264346	1431.034452358644	249.823462752007	843.676346662942	1368.299149522402	423.319273596673	737.773029699967	1442.441220623656	584.903027882298	739.803813668978	1495.889261122258	397.871226400895	793.582977331224	947.723259498934	565.363790673908	864.465040443653	765.555572544422	545.352212705170	807.064531394048	646.175377714033	614.153083172221	897.483471876807	603.953201440191	539.965600658568	924.489291490354	523.783947268279	554.802185608363	808.246306395322	729.541200638691	322.862473630147	695.882337642652	633.712222866544	258.204218066858	752.793599760554	542.695602321425	327.420981421910	737.254644725297	475.503729191761	338.542763968613	705.255204302442	409.415350637301	330.913100763774	606.537885826306	303.689545092859	280.133127428446	641.989907096551	190.181212630348	355.937792425971	912.469424315735	435.743964661645	564.638445615487	862.080948205994	321.127955328702	626.374410867063	934.766204055213	237.220305638924	576.940676519125	845.054353956468	52.898142911657	545.855367532622	1008.362198420398	122.949978606823	592.249340472975	926.277264592662	49.706864680488	622.924207646462	1130.156280222911	81.732001449173	622.891323244967	499.635047951653	40.581937456391	399.991960284848	573.879272383291	35.759084529296	320.263901197495	658.313312260370	95.456964902709	346.104320686159	785.583468121936	39.974620499011	318.857977171467	824.855892793843	1095.277394155344	107.412446771324	1071.270460305257	1013.159928982187	110.349337750332	591.534848627773	1133.635785025870	693.823568788745	562.639883753486	876.880551643140	726.119944405505	
20	17.014285714286	805.820282769358	955.866566079730	291.635620915863	579.514206096451	1000.164909411642	427.101175500105	758.177279531967	1430.092122115574	252.400583042763	843.016481133972	1367.502219205424	425.647884564433	736.941042872095	1440.871477433793	587.574212584105	738.558906824453	1494.656112530988	400.555181550948	794.885670716455	946.350824523991	567.172388508958	865.533466906172	763.484930665662	546.883487890176	806.603660285244	643.853331980967	614.386798991519	897.286963239444	601.915216183066	540.588072433919	922.703476938695	521.143471524294	554.582715594158	808.334353883145	728.185196124543	324.028205168890	695.232027521729	632.902488208859	259.647053916693	751.727378783850	541.466672694839	328.637902576182	735.792222796204	473.839181396462	339.752039851156	702.901978295881	408.063825685771	331.952854762438	602.761115871366	303.627523986769	280.937388444165	636.730609361401	189.517702159735	356.393820970443	910.161105731264	432.535288373185	564.328138502001	858.046310637038	318.226178656187	625.139027915802	929.908916879933	233.783525840870	575.704867312356	838.139104343087	50.949562754360	543.355842180040	1001.797701873881	119.118161270493	590.799909038093	918.675496644581	47.164707302413	621.227781761589	1122.975644689461	76.605326668823	622.629960537026	493.136008140547	40.618446258319	399.951281257319	567.433429635133	35.776024907800	320.292537722106	651.882524806672	95.418482361702	346.217590357167	779.149826348323	39.792861113204	318.842303189060	823.088966478823	1093.936215688235	110.189676125277	1069.034632204868	1010.227400470989	113.316933020382	594.044395108404	1129.728644242593	695.516322029993	570.196567648876	872.056834069738	725.752069475494	
21	17.027142857143	806.703944168525	954.851933477962	293.465994317224	580.380926873469	998.377690779423	429.610015011117	756.722830269711	1429.132843955612	255.156381074713	842.388614661465	1366.694724781558	428.091339944796	736.268811380018	1439.199332684068	590.532135594487	737.275954969082	1493.387759946045	403.485397025704	796.449648354872	944.928168510316	569.027677828419	866.836111100866	761.287711340267	548.299179994570	806.386178508214	641.545978264225	614.543114748879	897.203719737866	599.810076256600	540.999542411690	920.875056785549	518.212917959986	554.177644822149	808.780989783747	726.846912473788	325.272983861881	694.967645355699	631.997009083519	261.243719637284	751.168401253906	540.151668332419	329.964280286914	734.914673761566	472.000005227723	341.029174575409	700.955848490124	406.560566474685	333.089425489853	599.242140551261	303.578099274130	281.836781884808	631.579284838792	188.808766800778	356.881893142322	907.631535767008	429.070616386441	563.902381479909	853.518187778585	315.218296042922	623.855377942797	924.244240448032	230.042806594706	574.334799720316	829.874926671870	48.964976075100	540.899361610924	993.986947256877	115.043758481448	589.130156338255	909.779853327891	44.581148248190	619.530462183068	1114.576132267152	71.138028148343	622.094310253282	486.623913037865	40.715662430521	399.896932282847	560.993075089748	35.798356334917	320.312254612472	645.483602192221	95.376810687319	346.318840625237	772.751757670629	39.607492533490	318.809326194548	820.883218007855	1092.480150582821	113.092006628633	1066.159016100322	1006.515084179434	116.312231775306	597.113499000024	1125.501865930715	697.436081768517	578.895005639433	866.943317956341	725.491796649586	
22	17.040000000000	807.741857913188	953.881790470382	295.387510559687	581.380642529518	996.603024082562	432.285466244481	755.161708339777	1428.213272947507	258.078026489902	841.811965229475	1365.932355801307	430.648874317133	735.773499720361	1437.495756427381	593.755297723240	735.994381752938	1492.152509013454	406.648450027438	798.226287394553	943.528864311771	570.940326272772	868.290539596746	759.026161610409	549.637093048974	806.341623261181	639.351985978168	614.702212273551	897.139645236488	597.700177267057	541.264086148954	918.974875087886	515.137074072015	553.671370840699	809.568522807663	725.587492421628	326.633607320573	695.112296845703	631.032329836350	262.997775563776	751.166927147290	538.796852485665	331.405184933696	734.691370250264	470.024004846434	342.340573047788	699.454478105648	404.950577520199	334.303770920905	596.011653789330	303.609650244932	282.823178339541	626.580601883380	188.114887581807	357.375391907935	904.940561712594	425.540276973491	563.440121508591	848.750151786164	312.243384278829	622.657011779105	918.119671254832	226.226559093013	572.936985599477	820.825907728594	47.064345445602	538.644818961981	985.448771129963	111.002984773717	587.336587453566	900.194637824109	42.135387810375	617.940280813585	1105.524217813523	65.718725609812	621.303612784970	480.114988976194	40.974301131571	399.820015495320	554.569270493233	35.865169345499	320.318065058124	639.159867417145	95.344188939278	346.381291658459	766.396683910469	39.416828360790	318.756928812486	818.213430086545	1090.942766372362	116.136400723888	1062.585086721368	1002.046478039600	119.312507665461	600.728437225021	1121.066111006561	699.552345458997	588.676159610815	861.698140959579	725.385299856743	
23	17.052857142857	808.903486476080	953.032689629187	297.416798508168	582.482805047755	994.938043127614	435.095281709967	753.551000515541	1427.408194988961	261.147273130177	841.304518416248	1365.283160068341	433.315538998922	735.460116630495	1435.845957282456	597.203032737583	734.759071910343	1491.033376724441	410.021845188484	800.149191505671	942.241527914273	572.921770888414	869.805812675163	756.796405605970	550.949930010009	806.403747836681	637.385344369422	614.956706598744	897.014901553798	595.678612041304	541.470675272997	917.003021481706	512.097241693940	553.178997693908	810.677670646666	724.481047918841	328.141466791207	695.703255619071	630.052188959592	264.907854951923	751.800441949740	537.461815518486	332.958598459167	735.215112884206	467.960327854114	343.646636308655	698.466416423575	403.290827486776	335.567026024011	593.128377103194	303.807912517856	283.882037555616	621.804478377739	187.514037443027	357.841756488415	902.163902474450	422.151088616938	563.036229074871	843.988132291021	309.458840778020	621.680757870268	911.867387931341	222.571830912003	571.629013458582	811.523307402580	45.364056047827	536.724108628908	976.670067207114	107.264081654054	585.547480603948	890.473425577881	39.988112957008	616.557843051186	1096.335600466751	60.710719952034	620.337972476291	473.639899966023	41.535102113291	399.709944208098	548.180017248504	36.040141544017	320.303848964129	632.970504232990	95.339943349561	346.373119682341	760.088664381239	39.217358982357	318.684724343450	815.061321177005	1089.377438513915	119.348099935522	1058.243185762724	996.842901724818	122.302997820653	604.888100388746	1116.541906709902	701.829405220615	599.483307926962	856.491097618696	725.476059763280	
24	17.065714285714	810.130192146378	952.385057041051	299.566822862140	583.647010662284	993.488509743914	438.008420983147	751.953729884850	1426.803223358780	264.341344766919	840.881589161990	1364.819636691938	436.081764113393	735.322538723637	1434.343469935648	600.818383592389	733.616517928906	1490.118937998195	413.573727825722	802.138928391694	941.159290649710	574.984482313072	871.287796671522	754.717706222631	552.301032069542	806.514018812096	635.758303838190	615.401201553064	896.771083924864	593.853884224436	541.725484250310	914.978828327190	509.282718009670	552.832121993997	812.091566452434	723.609019302594	329.819976402011	696.794846873103	629.102101409491	266.965049643749	753.174526036577	536.213657809678	334.612698414258	736.601484301338	465.865079385945	344.902346202371	698.093644143423	401.644247772507	336.840696246294	590.683508847529	304.269816968066	284.991777249021	617.345570039772	187.097660877187	358.245241255480	899.375295877857	419.096600360412	562.790685333266	839.431529850789	307.015948630103	621.048920170721	905.757430065827	219.290572880862	570.524997390617	802.400708800195	43.956994107004	535.225597342916	968.048343511770	104.045293405640	583.903078565303	881.054535646769	38.251765936281	615.459741224075	1087.414683009469	56.394829429486	619.315582711051	467.247104028127	42.577881706387	399.555335715121	541.851852093743	36.415710066261	320.262426216895	626.989446104648	95.392029952744	346.260576813654	753.826915246063	39.003464021065	318.594328292016	811.419656896968	1087.856342120377	122.756331145142	1053.055719699905	990.925476828059	125.278674803511	609.600497523459	1112.056035606675	704.231271559629	611.267434067533	851.499270794663	725.801309868906	
